<svg width="248" height="850" viewBox="0 0 248 850" fill="none" xmlns="http://www.w3.org/2000/svg">
<path d="M14.7812 108.906C15.9062 108.344 17.9688 107.5 20.9688 106.375C23.9688 105.25 27.1562 104.031 30.5312 102.719C33.9062 101.406 37.0938 100.094 40.0938 98.7813C43.0938 97.6563 45.1562 96.8125 46.2812 96.25C47.0312 95.875 47.7812 95.5 48.5312 95.125C49.2812 94.9375 49.8438 94.4688 50.2188 93.7188C46.2812 89.5938 42.1562 85 37.8438 79.9375C33.5312 75.0625 29.5938 69.8125 26.0312 64.1875C22.6562 58.75 19.8438 53.0313 17.5938 47.0313C15.5312 41.0313 14.5 35.0313 14.5 29.0313C14.5 22.4688 16.75 17.3125 21.25 13.5625C25.9375 9.8125 31.4688 6.90625 37.8438 4.84375C44.4062 2.78125 51.0625 1.46875 57.8125 0.90625C64.5625 0.34375 70.0938 0.0625 74.4062 0.0625C83.0312 0.0625 90.8125 1.46875 97.75 4.28125C104.875 7.09375 110.875 11.0313 115.75 16.0938C120.812 21.3438 124.656 27.5313 127.281 34.6563C129.906 41.7813 131.219 49.75 131.219 58.5625C131.219 64.75 129.719 70.1875 126.719 74.875C123.906 79.5625 120.156 83.5 115.469 86.6875C110.969 90.0625 106 92.7813 100.562 94.8438C95.125 97.0938 89.875 98.9688 84.8125 100.469C85.75 102.156 87.9062 104.125 91.2812 106.375C94.8438 108.813 98.6875 111.25 102.812 113.688C107.125 116.313 111.344 118.75 115.469 121C119.781 123.438 123.25 125.313 125.875 126.625C126.812 127.188 129.156 128.406 132.906 130.281C136.844 132.344 141.062 134.5 145.562 136.75C150.062 139.188 154.281 141.344 158.219 143.219C162.156 145.281 164.594 146.594 165.531 147.156C165.906 147.344 166.562 147.812 167.5 148.562C168.625 149.312 169.375 149.781 169.75 149.969C169.75 149.781 169.844 149.688 170.031 149.688H170.594H171.438C171.438 141.062 172.094 132.719 173.406 124.656C174.719 116.781 177.156 109.844 180.719 103.844C184.281 97.8438 189.156 92.9688 195.344 89.2188C201.531 85.6563 209.688 83.875 219.812 83.875C220.375 83.875 221.781 83.875 224.031 83.875C226.281 84.0625 227.781 84.1563 228.531 84.1563C230.406 84.7188 231.906 85.75 233.031 87.25C234.344 88.75 235.188 90.4375 235.562 92.3125C235.938 94 235 95.2188 232.75 95.9688C230.5 96.9063 227.5 97.6563 223.75 98.2188C220 98.9688 215.969 99.8125 211.656 100.75C207.344 101.875 203.219 103.656 199.281 106.094C195.531 108.719 192.25 112.094 189.438 116.219C186.625 120.531 185.031 126.25 184.656 133.375C184.656 133.75 184.562 134.969 184.375 137.031C184.375 139.281 184.375 141.156 184.375 142.656C184.375 143.594 184.375 144.906 184.375 146.594C184.375 148.469 184.375 150.25 184.375 151.938C184.562 153.812 184.844 155.5 185.219 157C185.781 158.688 186.531 159.906 187.469 160.656C188.781 161.781 191.031 163.656 194.219 166.281C197.594 169.094 201.062 171.906 204.625 174.719C208.188 177.531 211.562 180.25 214.75 182.875C218.125 185.5 220.469 187.375 221.781 188.5C224.969 191.688 228.156 195.25 231.344 199.188C234.531 203.125 237.344 207.25 239.781 211.562C242.219 215.875 244.188 220.375 245.688 225.062C247.188 229.75 247.938 234.531 247.938 239.406C247.938 242.781 247.281 245.594 245.969 247.844C244.656 250.281 242.875 252.156 240.625 253.469C238.562 254.781 236.125 255.625 233.312 256C230.688 256.562 227.969 256.844 225.156 256.844C219.719 256.844 214.938 255.438 210.813 252.625C206.688 250 203.031 246.531 199.844 242.219C196.656 237.906 193.938 233.219 191.688 228.156C189.438 223.281 187.562 218.594 186.062 214.094C185.5 212.594 184.656 209.875 183.531 205.938C182.406 202 181.094 197.688 179.594 193C178.281 188.5 177.062 184.188 175.938 180.062C174.812 176.125 174.156 173.312 173.969 171.625C172.656 170.312 171.062 168.812 169.188 167.125C167.312 165.625 165.625 164.5 164.125 163.75L100.844 129.156C100.844 128.969 100.656 128.688 100.281 128.313C100.094 128.125 99.9062 127.938 99.7188 127.75C99.3438 127.75 98.5938 127.469 97.4688 126.906C96.5312 126.344 95.4062 125.781 94.0938 125.219C92.9688 124.656 91.8438 124.094 90.7188 123.531C89.5938 122.969 88.9375 122.688 88.75 122.688C88 122.125 86.5 121.094 84.25 119.594C82.1875 118.281 79.9375 116.781 77.5 115.094C75.25 113.406 73.0938 111.813 71.0312 110.313C68.9688 109 67.5625 108.063 66.8125 107.5H65.9688H65.4062C60.5312 108.813 56.3125 109.938 52.75 110.875C49.375 112 46.0938 113.031 42.9062 113.969C39.7188 115.094 36.3438 116.406 32.7812 117.906C29.2188 119.406 25 121.375 20.125 123.813C18.8125 124.563 17.5938 125.594 16.4688 126.906C15.3438 128.219 14.2188 129.531 13.0938 130.844C11.9688 132.344 10.75 133.563 9.4375 134.5C8.3125 135.625 7.09375 136.188 5.78125 136.188C2.40625 136.188 0.71875 134.5 0.71875 131.125C0.71875 126.25 2.125 121.938 4.9375 118.188C7.75 114.438 11.0312 111.344 14.7812 108.906ZM77.2188 14.125C74.9688 14.125 71.2188 14.3125 65.9688 14.6875C60.9062 15.0625 55.6562 15.8125 50.2188 16.9375C44.9688 18.25 40.2812 20.125 36.1562 22.5625C32.0312 25.1875 29.9688 28.6563 29.9688 32.9688C29.9688 38.0313 31.0938 42.5313 33.3438 46.4688C35.5938 50.5938 37.6562 54.9063 39.5312 59.4063L66.8125 88.375H67.9375C71.3125 88.375 75.7188 87.5313 81.1562 85.8438C86.5938 84.3438 91.9375 82.1875 97.1875 79.375C102.438 76.5625 106.844 73.2813 110.406 69.5313C114.156 65.7813 116.031 61.75 116.031 57.4375C116.031 51.25 115.281 45.4375 113.781 40C112.281 34.75 109.938 30.25 106.75 26.5C103.562 22.75 99.5312 19.75 94.6562 17.5C89.7812 15.25 83.9688 14.125 77.2188 14.125ZM232.75 236.875C232.75 232.375 231.813 227.875 229.938 223.375C228.062 218.875 225.625 214.562 222.625 210.438C219.625 206.312 216.344 202.469 212.781 198.906C209.219 195.344 205.844 192.25 202.656 189.625C201.906 188.875 200.781 187.938 199.281 186.812C197.781 185.875 196.375 184.844 195.062 183.719C193.938 182.781 192.812 181.938 191.688 181.188C190.75 180.438 190.281 180.062 190.281 180.062H188.875V181.188C188.875 181.375 189.25 182.688 190 185.125C190.75 187.562 191.594 190.375 192.531 193.562C193.656 196.938 194.688 200.312 195.625 203.688C196.75 207.062 197.688 209.688 198.438 211.562C199.375 214.375 200.594 217.562 202.094 221.125C203.781 224.875 205.75 228.344 208 231.531C210.25 234.906 212.781 237.719 215.594 239.969C218.406 242.219 221.594 243.344 225.156 243.344C228.156 243.344 230.125 242.875 231.063 241.938C232.188 241.188 232.75 239.5 232.75 236.875ZM60.0625 195.531C61 195.719 62.6875 196.281 65.125 197.219C67.5625 198.156 70.1875 199.094 73 200.031C75.8125 201.156 78.4375 202.188 80.875 203.125C83.3125 204.063 85 204.719 85.9375 205.094C88.9375 206.219 90.9062 207.25 91.8438 208.188C92.7812 209.313 93.25 211.281 93.25 214.094C93.25 217.094 92.2188 219.063 90.1562 220C88.0938 220.938 85.6562 221.406 82.8438 221.406C77.9688 221.406 73.4688 220.656 69.3438 219.156C65.4062 217.844 61.375 216.344 57.25 214.656C53.3125 212.969 49 211.375 44.3125 209.875C39.8125 208.563 34.5625 207.906 28.5625 207.906C27.8125 207.906 26.6875 207.906 25.1875 207.906C23.875 207.906 22.4688 208 20.9688 208.188C19.6562 208.375 18.4375 208.75 17.3125 209.313C16.375 209.875 15.9062 210.625 15.9062 211.563C15.9062 216.438 16.8438 221.313 18.7188 226.188C20.7812 231.25 23.125 236.125 25.75 240.813C28.5625 245.688 31.5625 250.281 34.75 254.594C38.125 259.094 41.0312 263.125 43.4688 266.688C44.4062 268 45.3438 268.938 46.2812 269.5C47.2188 270.25 48.0625 270.906 48.8125 271.469C49.75 272.031 50.5 272.688 51.0625 273.438C51.8125 274.375 52.1875 275.781 52.1875 277.656C52.1875 280.094 51.625 282.062 50.5 283.562C49.5625 285.25 47.7812 286.094 45.1562 286.094C44.0312 286.094 43 286 42.0625 285.812C41.125 285.812 40.2812 285.344 39.5312 284.406C38.9688 284.219 38.2188 283.469 37.2812 282.156C36.3438 281.031 35.3125 279.812 34.1875 278.5C33.25 277.188 32.3125 275.969 31.375 274.844C30.625 273.719 30.1562 272.875 29.9688 272.312C29.9688 272.125 29.6875 271.562 29.125 270.625C28.75 269.875 28.5625 269.406 28.5625 269.219C28.375 269.031 28.0938 268.75 27.7188 268.375C27.5312 268.188 27.3438 268.094 27.1562 268.094C24.1562 264.156 21.0625 259.844 17.875 255.156C14.875 250.656 12.0625 245.875 9.4375 240.813C7 235.75 4.9375 230.5 3.25 225.063C1.5625 219.813 0.71875 214.563 0.71875 209.313C0.71875 204.813 1.84375 201.344 4.09375 198.906C6.53125 196.656 9.53125 194.969 13.0938 193.844C16.6562 192.719 20.4062 192.063 24.3438 191.875C28.2812 191.688 31.8438 191.594 35.0312 191.594L60.0625 195.531ZM134.031 209.031C137.406 209.031 139.656 209.688 140.781 211C141.906 212.312 142.469 214.656 142.469 218.031C142.469 219.719 142.094 221.406 141.344 223.094C140.781 224.781 139.281 225.625 136.844 225.625C134.406 225.625 132.156 224.406 130.094 221.969C128.031 219.719 127 217.469 127 215.219C127 212.969 127.656 211.375 128.969 210.438C130.469 209.5 132.156 209.031 134.031 209.031ZM79.1875 331.094C79.375 331.094 79.9375 331.188 80.875 331.375C81.8125 331.75 82.8438 332.125 83.9688 332.5C85.0938 333.062 86.2188 333.531 87.3438 333.906C88.4688 334.281 89.4062 334.562 90.1562 334.75H90.7188H91.2812C91.4688 332.312 91.8438 329.031 92.4062 324.906C92.9688 320.781 93.9062 316.844 95.2188 313.094C96.7188 309.344 98.5938 306.062 100.844 303.25C103.094 300.438 106.188 299.031 110.125 299.031C113.875 299.031 116.875 300.344 119.125 302.969C121.563 305.594 123.438 308.781 124.75 312.531C126.25 316.281 127.281 320.125 127.844 324.062C128.406 328 128.688 331.281 128.688 333.906C128.688 337.469 128.594 340.469 128.406 342.906C128.406 345.344 128.031 348.438 127.281 352.188H131.219L212.5 394.094L204.063 355.562V347.125C204.063 345.062 204.156 342.344 204.344 338.969C204.531 335.594 205 332.312 205.75 329.125C206.688 325.938 208 323.125 209.688 320.688C211.375 318.438 213.906 317.312 217.281 317.312C221.594 317.312 225.438 317.875 228.813 319C232.375 320.312 234.156 323.406 234.156 328.281C234.156 330.344 233.406 331.75 231.906 332.5C230.406 333.438 228.719 334 226.844 334.188C224.969 334.562 223.094 335.031 221.219 335.594C219.531 336.156 218.313 337.281 217.563 338.969C217.563 339.531 217.563 340.281 217.563 341.219C217.563 342.344 217.469 343.469 217.281 344.594C217.281 345.906 217.281 347.125 217.281 348.25C217.281 349.375 217.281 350.219 217.281 350.781C217.281 354.719 217.469 358.281 217.844 361.469C218.219 364.844 218.688 368.031 219.25 371.031C220 374.219 220.938 377.312 222.063 380.312C223.188 383.5 224.5 387.062 226 391C226.938 393.438 228.438 395.875 230.5 398.312C232.75 400.75 234.906 403.094 236.969 405.344C239.219 407.781 241.094 410.219 242.594 412.656C244.281 415.094 245.125 417.625 245.125 420.25C245.125 423.812 243.156 425.594 239.219 425.594C237.719 425.594 236.406 425.5 235.281 425.312C234.156 425.125 232.844 424.656 231.344 423.906L127.281 367.656H123.063C119.5 377.969 114.531 387.156 108.156 395.219V396.906L114.906 443.031L116.031 445.844C117.719 446.406 120.344 447.344 123.906 448.656C127.469 450.156 131.219 451.75 135.156 453.438C139.281 455.125 143.125 456.719 146.688 458.219C150.438 459.719 153.063 460.656 154.563 461.031C154.938 461.406 155.875 461.875 157.375 462.438C158.875 463 159.813 463.469 160.188 463.844L223.188 488.312C224.5 489.062 225.719 490.281 226.844 491.969C227.969 493.844 228.531 495.438 228.531 496.75C228.531 499.188 227.406 500.688 225.156 501.25C223.094 502 221.219 502.375 219.531 502.375H217.563L143.594 473.406C142.094 472.656 140.125 471.719 137.688 470.594C135.438 469.656 133.188 468.719 130.938 467.781C128.688 466.844 126.531 466 124.469 465.25C122.406 464.688 121 464.219 120.25 463.844C120.25 464.406 120.344 465.25 120.531 466.375C120.906 467.5 121.188 468.719 121.375 470.031C121.563 471.344 121.844 472.562 122.219 473.688C122.594 475 122.875 475.75 123.063 475.938C123.438 477.25 124.188 479.406 125.313 482.406C126.438 485.406 127.656 488.594 128.969 491.969C130.469 495.344 131.781 498.531 132.906 501.531C134.031 504.531 134.875 506.594 135.438 507.719C136.938 508.656 138.25 509.969 139.375 511.656C140.5 513.531 141.063 515.406 141.063 517.281C141.063 518.406 140.688 519.344 139.938 520.094C139.188 521.031 138.156 521.5 136.844 521.5C134.781 521.5 132.906 520.75 131.219 519.25C129.531 517.75 127.844 515.969 126.156 513.906C124.656 511.844 123.438 509.688 122.5 507.438C121.563 505.188 120.813 503.5 120.25 502.375L105.063 458.781L32.5 432.344C30.625 431.969 28 431.406 24.625 430.656C21.4375 430.094 18.25 429.156 15.0625 427.844C11.875 426.719 9.15625 425.219 6.90625 423.344C4.65625 421.469 3.53125 419.219 3.53125 416.594C3.53125 413.781 5.40625 411.625 9.15625 410.125C12.9062 408.625 17.5938 407.5 23.2188 406.75C29.0312 406.188 35.4062 405.625 42.3438 405.062C49.2812 404.688 56.125 403.938 62.875 402.812C69.625 401.875 75.625 400.375 80.875 398.312C86.125 396.25 90.0625 393.344 92.6875 389.594C92.6875 389.406 92.7812 388.562 92.9688 387.062C93.1562 385.562 93.25 384.719 93.25 384.531C93.25 383.781 93.1562 382.656 92.9688 381.156C92.7812 379.844 92.6875 379.094 92.6875 378.906C92.5 377.031 92.2188 374.594 91.8438 371.594C91.6562 368.594 91.375 365.688 91 362.875C90.8125 360.25 90.625 357.906 90.4375 355.844C90.25 353.781 90.1562 352.75 90.1562 352.75L88.75 351.625L27.1562 322.656C22.0938 321.906 17.7812 320.219 14.2188 317.594C10.6562 314.969 6.625 312.531 2.125 310.281C2.125 309.719 1.9375 308.5 1.5625 306.625C1.1875 304.938 1 303.906 1 303.531C1 303.344 1.1875 302.688 1.5625 301.562C1.9375 300.625 2.125 299.875 2.125 299.312C2.3125 298.938 2.59375 298.375 2.96875 297.625C3.34375 296.875 3.625 296.5 3.8125 296.5H10.5625L79.1875 331.094ZM94.9375 406.469C93.0625 406.469 90.0625 407.125 85.9375 408.438C82 409.75 77.5938 411.25 72.7188 412.938C67.8438 414.812 63.0625 416.5 58.375 418C53.875 419.688 50.3125 420.812 47.6875 421.375C48.4375 421.562 49.8438 421.938 51.9062 422.5C54.1562 423.25 56.4062 424 58.6562 424.75C61.0938 425.5 63.25 426.156 65.125 426.719C67.1875 427.281 68.6875 427.75 69.625 428.125C69.8125 428.312 70.2812 428.594 71.0312 428.969C71.7812 429.344 72.25 429.625 72.4375 429.812C74.3125 430.375 76.6562 431.219 79.4688 432.344C82.2812 433.469 85.0938 434.5 87.9062 435.438C90.7188 436.562 93.1562 437.5 95.2188 438.25C97.2812 439 98.3125 439.375 98.3125 439.375H101.125C101.125 439 101.125 438.531 101.125 437.969C101.125 437.406 101.031 436.938 100.844 436.562C100.844 435.438 100.562 433.375 100 430.375C99.4375 427.562 98.875 424.562 98.3125 421.375C97.75 418.188 97.1875 415.094 96.625 412.094C96.0625 409.281 95.7812 407.406 95.7812 406.469H94.9375ZM110.688 318.719C108.625 321.344 107.219 324.531 106.469 328.281C105.719 332.219 105.344 335.875 105.344 339.25C105.344 340.75 106.188 341.969 107.875 342.906C109.75 343.844 111.344 344.312 112.656 344.312H113.5C113.5 343.938 113.688 342.625 114.063 340.375C114.625 338.125 114.906 336.812 114.906 336.438C114.906 336.25 114.813 335.312 114.625 333.625C114.625 331.938 114.438 329.969 114.063 327.719C113.688 325.656 113.219 323.688 112.656 321.812C112.094 319.938 111.438 318.906 110.688 318.719ZM109.563 362.875C109.563 360.438 108.156 359.219 105.344 359.219V370.469L106.469 371.875C107.406 370.562 108.156 369.156 108.719 367.656C109.281 366.156 109.563 364.562 109.563 362.875ZM31.375 502.656C34 503.406 36.7188 503.875 39.5313 504.062C42.3438 504.438 45.3438 504.812 48.5313 505.188C51.7188 505.75 55.2813 506.594 59.2188 507.719C63.3438 509.031 67.9375 511 73 513.625C78.0625 516.25 83.875 519.719 90.4375 524.031C97.1875 528.531 104.875 534.344 113.5 541.469C114.625 542.219 115.563 543.156 116.313 544.281C117.25 545.406 117.719 546.625 117.719 547.938C117.719 550.188 116.781 552.156 114.906 553.844C113.219 555.531 111.344 556.375 109.281 556.375C109.094 556.375 108.438 556.188 107.313 555.812C106.375 555.625 105.719 555.438 105.344 555.25C101.031 553.188 97.1875 551.219 93.8125 549.344C90.4375 547.469 87.1563 545.5 83.9688 543.438C80.9688 541.375 77.7813 539.031 74.4063 536.406C71.0313 533.969 67.1875 531.062 62.875 527.688C57.25 525.438 52 523.469 47.125 521.781C42.25 520.094 36.8125 519.25 30.8125 519.25C27.8125 519.25 25.375 519.344 23.5 519.531C21.625 519.906 19.0938 520.844 15.9063 522.344V525.438C15.9063 530.875 18.0625 537.062 22.375 544C26.875 551.125 32.125 558.062 38.125 564.812C44.3125 571.75 50.5938 578.031 56.9688 583.656C63.3438 589.281 68.5 593.406 72.4375 596.031C72.8125 596.406 73.6563 596.875 74.9688 597.438C76.4688 598.188 77.4063 598.656 77.7813 598.844C78.9063 599.219 80.7813 599.875 83.4063 600.812C86.2188 601.75 89.125 602.688 92.125 603.625C95.125 604.75 97.9375 605.781 100.563 606.719C103.375 607.656 105.344 608.312 106.469 608.688C108.156 609.062 109.094 609.812 109.281 610.938C109.469 612.062 109.563 613.188 109.563 614.312C109.563 617.688 108.813 619.844 107.313 620.781C106 621.719 103.75 622.188 100.563 622.188H95.7813C90.7188 620.312 86.0313 618.625 81.7188 617.125C77.4063 615.812 73.1875 614.5 69.0625 613.188C64.9375 612.062 60.8125 611.219 56.6875 610.656C52.5625 610.094 48.0625 609.812 43.1875 609.812C42.625 609.812 41.3125 609.719 39.25 609.531C37.1875 609.531 35.0313 609.625 32.7813 609.812C30.7188 610.188 28.75 610.75 26.875 611.5C25.1875 612.438 24.3438 613.75 24.3438 615.438C24.3438 619.938 24.9063 624.531 26.0313 629.219C27.3438 634.094 28.9375 638.969 30.8125 643.844C32.875 648.719 35.125 653.312 37.5625 657.625C40 662.125 42.4375 666.344 44.875 670.281C45.25 671.219 46.0938 672.344 47.4063 673.656C48.7188 674.969 49.9375 676.375 51.0625 677.875C52.375 679.375 53.5 680.875 54.4375 682.375C55.375 683.875 55.8438 685.281 55.8438 686.594C55.8438 690.344 53.9688 692.219 50.2188 692.219C47.4063 692.219 44.4063 690.531 41.2188 687.156C38.2188 683.781 35.2188 679.469 32.2188 674.219C29.2188 669.156 26.4063 663.438 23.7813 657.062C21.1563 650.688 18.8125 644.5 16.75 638.5C14.875 632.688 13.2813 627.438 11.9688 622.75C10.8438 618.062 10.2813 614.688 10.2813 612.625C10.2813 611.875 10.2813 610.469 10.2813 608.406C10.4688 606.531 10.5625 605.219 10.5625 604.469C11.3125 601.469 13 599.125 15.625 597.438C18.25 595.75 21.1563 594.438 24.3438 593.5C27.7188 592.75 31 592.281 34.1875 592.094C37.5625 591.906 40.2813 591.812 42.3438 591.812C41.9688 591.25 41.5 590.5 40.9375 589.562C40.5625 588.812 40.0938 588.344 39.5313 588.156C38.2188 586.656 36.1563 584.125 33.3438 580.562C30.7188 577.188 27.8125 573.438 24.625 569.312C21.625 565.375 18.8125 561.625 16.1875 558.062C13.5625 554.688 11.6875 552.344 10.5625 551.031C7.75 547.281 5.40625 543.156 3.53125 538.656C1.65625 534.156 0.71875 529.562 0.71875 524.875C0.71875 520 1.46875 516.156 2.96875 513.344C4.65625 510.531 6.8125 508.281 9.4375 506.594C12.25 505.094 15.5313 504.062 19.2813 503.5C23.0313 502.938 27.0625 502.656 31.375 502.656ZM9.4375 687.438C10 687.438 11.4063 687.438 13.6563 687.438C15.9063 687.438 17.4063 687.438 18.1563 687.438C29.4063 684.25 40.4688 683.781 51.3438 686.031C62.2188 688.469 71.9688 692.688 80.5938 698.688C89.4063 704.875 96.7188 712.656 102.531 722.031C108.531 731.594 112.188 742 113.5 753.25V758.312C113.5 762.438 112.563 765.812 110.688 768.438C109 771.25 106.75 773.406 103.938 774.906C101.125 776.594 97.9375 777.719 94.375 778.281C90.8125 779.031 87.25 779.406 83.6875 779.406C78.8125 779.406 74.0313 778.844 69.3438 777.719C64.8438 776.781 60.25 775.656 55.5625 774.344C50.875 773.219 46.1875 772.094 41.5 770.969C37 770.031 32.2188 769.562 27.1563 769.562H25.4688C25.0938 769.75 23.9688 769.938 22.0938 770.125C20.4063 770.5 19.375 770.781 19 770.969C19 771.344 18.9063 772.281 18.7188 773.781C18.7188 775.281 18.7188 776.219 18.7188 776.594C18.7188 778.469 18.7188 780.25 18.7188 781.938C18.9063 783.812 19.375 785.688 20.125 787.562L44.875 841C44.875 841.188 44.875 841.469 44.875 841.844C45.0625 842.406 45.1563 842.781 45.1563 842.969C45.1563 844.844 44.5938 846.344 43.4688 847.469C42.3438 848.781 40.8438 849.438 38.9688 849.438C38.0313 849.438 37.0938 849.344 36.1563 849.156C35.4063 849.156 34.6563 848.688 33.9063 847.75C32.9688 846.438 31.6563 844 29.9688 840.438C28.2813 837.062 26.4063 833.406 24.3438 829.469C22.2813 825.531 20.3125 821.781 18.4375 818.219C16.5625 814.844 15.3438 812.406 14.7813 810.906C13.2813 808.281 11.875 805.375 10.5625 802.188C9.4375 799 8.3125 795.719 7.1875 792.344C6.0625 788.969 5.125 785.594 4.375 782.219C3.8125 779.031 3.53125 776.125 3.53125 773.5C3.53125 769.375 4.1875 766 5.5 763.375C7 760.75 8.875 758.781 11.125 757.469C13.5625 756.156 16.375 755.219 19.5625 754.656C22.9375 754.281 26.4063 754.281 29.9688 754.656C26.9688 750.906 23.7813 746.875 20.4063 742.562C17.0313 738.25 13.9375 733.75 11.125 729.062C8.3125 724.375 5.875 719.594 3.8125 714.719C1.75 709.844 0.71875 704.875 0.71875 699.812C0.71875 697 1.375 694.469 2.6875 692.219C4.1875 689.969 6.4375 688.375 9.4375 687.438ZM15.3438 702.625C15.3438 706.938 16.5625 711.719 19 716.969C21.625 722.219 24.8125 727.375 28.5625 732.438C32.3125 737.5 36.25 742.094 40.375 746.219C44.6875 750.344 48.5313 753.531 51.9063 755.781C57.5313 755.969 62.875 756.719 67.9375 758.031C73.1875 759.531 78.5313 760.281 83.9688 760.281C84.3438 760.281 84.9063 760.188 85.6563 760C86.4063 760 86.9688 760 87.3438 760C89.4063 757.562 90.625 755.5 91 753.812C91.375 752.125 91.5625 749.875 91.5625 747.062C91.5625 746.688 91.5625 745.844 91.5625 744.531C91.5625 743.406 91.4688 742.656 91.2813 742.281C90.3438 741.156 88.5625 739.281 85.9375 736.656C83.5 734.031 80.7813 731.219 77.7813 728.219C74.7813 725.406 71.9688 722.688 69.3438 720.062C66.7188 717.625 64.9375 715.938 64 715C64 714.812 63.625 714.438 62.875 713.875C62.3125 713.312 61.5625 712.656 60.625 711.906C59.6875 711.344 58.75 710.781 57.8125 710.219C57.0625 709.844 56.4063 709.562 55.8438 709.375L22.9375 702.625H15.3438Z" fill="#E9E9E9"/>
</svg>
